<?xml version="1.0" encoding="utf-8"?>
<!-- Generator: Adobe Illustrator 22.1.0, SVG Export Plug-In . SVG Version: 6.00 Build 0)  -->
<svg version="1.1" id="Layer_1" xmlns="http://www.w3.org/2000/svg" xmlns:xlink="http://www.w3.org/1999/xlink" x="0px" y="0px"
	 viewBox="0 0 288 288" style="enable-background:new 0 0 288 288;" xml:space="preserve">
<style type="text/css">
	.st0{clip-path:url(#SVGID_2_);}
	.st1{fill:#FFFFFF;}
	.st2{fill:#EAEAEA;}
	.st3{fill:#DCDCDC;}
	.st4{fill:#CFCFCF;}
	.st5{fill:#FDFDFD;}
	.st6{fill:#F1F1F1;}
	.st7{fill:#EBEBEB;}
	.st8{fill:#FEFEFE;}
	.st9{fill:#E8E8E8;}
	.st10{fill:#DDDDDD;}
	.st11{fill:#D4D4D4;}
	.st12{fill:#D1D1D1;}
	.st13{fill:#C3C3C3;}
	.st14{fill:#CECECE;}
	.st15{fill:#C4C4C4;}
	.st16{fill:#CBCBCB;}
	.st17{fill:#BFBFBF;}
	.st18{fill:#EFEFEF;}
	.st19{fill:#FAFAFA;}
	.st20{fill:#E9E9E9;}
	.st21{fill:#E5E5E5;}
	.st22{fill:#E6E6E6;}
	.st23{fill:#DFDFDF;}
	.st24{fill:#DBDBDB;}
	.st25{fill:#BBBBBB;}
	.st26{fill:#B9B9B9;}
	.st27{fill:#B3B3B3;}
	.st28{fill:#B5B5B5;}
	.st29{fill:#FBFBFB;}
	.st30{fill:#EEEEEE;}
	.st31{fill:#E4E4E4;}
	.st32{fill:#D7D7D7;}
	.st33{fill:#D9D9D9;}
	.st34{fill:#CCCCCC;}
	.st35{fill:#C5C5C5;}
	.st36{fill:#B8B8B8;}
	.st37{fill:#BEBEBE;}
	.st38{fill:#FCFCFC;}
	.st39{fill:#F9F9F9;}
	.st40{fill:#E1E1E1;}
	.st41{fill:#E3E3E3;}
	.st42{fill:#D6D6D6;}
	.st43{fill:#E0E0E0;}
	.st44{fill:#C0C0C0;}
	.st45{fill:#BABABA;}
	.st46{fill:#AEAEAE;}
	.st47{fill:#BCBCBC;}
</style>
<g>
	<defs>
		<rect id="SVGID_1_" x="0" y="0" width="288" height="288"/>
	</defs>
	<clipPath id="SVGID_2_">
		<use xlink:href="#SVGID_1_"  style="overflow:visible;"/>
	</clipPath>
	<g class="st0">
		<g>
			<polygon class="st1" points="-20.4,297.1 5.6,283.4 5.6,253.2 -20.4,266.9 			"/>
			<polygon class="st1" points="34,298.5 34,268.3 5.3,253.2 5.3,283.4 			"/>
			<polygon class="st1" points="-20.4,267.2 5.6,253.5 5.6,223.3 -20.4,237 			"/>
			<polygon class="st1" points="34,268.6 34,238.4 5.3,223.3 5.3,253.5 			"/>
			<polygon class="st1" points="-20.4,237.3 5.6,223.6 5.6,193.4 -20.4,207.1 			"/>
			<polygon class="st1" points="34,238.7 34,208.5 5.3,193.4 5.3,223.6 			"/>
			<polygon class="st1" points="-20.4,207.4 5.6,193.8 5.6,163.5 -20.4,177.2 			"/>
			<polygon class="st1" points="34,208.9 34,178.6 5.3,163.5 5.3,193.8 			"/>
			<polygon class="st1" points="-20.4,177.6 5.6,163.9 5.6,133.7 -20.4,147.4 			"/>
			<polygon class="st1" points="34,179 34,148.8 5.3,133.7 5.3,163.9 			"/>
			<polygon class="st1" points="-20.4,147.7 5.6,134 5.6,103.8 -20.4,117.5 			"/>
			<polygon class="st1" points="34,149.1 34,118.9 5.3,103.8 5.3,134 			"/>
			<polygon class="st1" points="-20.4,117.8 5.6,104.1 5.6,73.9 -20.4,87.6 			"/>
			<polygon class="st1" points="34,119.2 34,89 5.3,73.9 5.3,104.1 			"/>
			<polygon class="st1" points="-20.4,87.9 5.6,74.3 5.6,44 -20.4,57.7 			"/>
			<polygon class="st1" points="34,89.4 34,59.2 5.3,44 5.3,74.3 			"/>
			<polygon class="st1" points="-20.4,58.1 5.6,44.4 5.6,14.2 -20.4,27.9 			"/>
			<polygon class="st2" points="34,59.5 34,29.3 5.3,14.2 5.3,44.4 			"/>
			<polygon class="st1" points="-20.4,28.2 5.6,14.5 5.6,-9.8 -5.6,-9.8 -20.4,-2 			"/>
			<polygon class="st3" points="34,-0.6 16.5,-9.8 5.3,-9.8 5.3,14.5 34,29.6 			"/>
			<polygon class="st1" points="-20.4,-1.7 -5,-9.8 -20.4,-9.8 			"/>
			<polygon class="st4" points="34,-9.8 15.9,-9.8 34,-0.3 			"/>
			<polygon class="st1" points="33.6,298.5 33.6,268.3 62.3,253.2 62.3,283.4 			"/>
			<polygon class="st1" points="90.7,298.5 90.7,268.3 62,253.2 62,283.4 			"/>
			<polygon class="st1" points="33.6,268.6 33.6,238.4 62.3,223.3 62.3,253.5 			"/>
			<polygon class="st1" points="90.7,268.6 90.7,238.4 62,223.3 62,253.5 			"/>
			<polygon class="st1" points="33.6,238.7 33.6,208.5 62.3,193.4 62.3,223.6 			"/>
			<polygon class="st5" points="90.7,238.7 90.7,208.5 62,193.4 62,223.6 			"/>
			<polygon class="st1" points="33.6,208.9 33.6,178.6 62.3,163.5 62.3,193.8 			"/>
			<polygon class="st6" points="90.7,208.9 90.7,178.6 62,163.5 62,193.8 			"/>
			<polygon class="st1" points="33.6,179 33.6,148.8 62.3,133.7 62.3,163.9 			"/>
			<polygon class="st7" points="90.7,179 90.7,148.8 62,133.7 62,163.9 			"/>
			<polygon class="st8" points="33.6,149.1 33.6,118.9 62.3,103.8 62.3,134 			"/>
			<polygon class="st7" points="90.7,149.1 90.7,118.9 62,103.8 62,134 			"/>
			<polygon class="st5" points="33.6,119.2 33.6,89 62.3,73.9 62.3,104.1 			"/>
			<polygon class="st9" points="90.7,119.2 90.7,89 62,73.9 62,104.1 			"/>
			<polygon class="st10" points="33.6,89.4 33.6,59.2 62.3,44 62.3,74.3 			"/>
			<polygon class="st11" points="90.7,89.4 90.7,59.2 62,44 62,74.3 			"/>
			<polygon class="st12" points="33.6,59.5 33.6,29.3 62.3,14.2 62.3,44.4 			"/>
			<polygon class="st13" points="90.7,59.5 90.7,29.3 62,14.2 62,44.4 			"/>
			<polygon class="st14" points="62.3,14.5 62.3,-9.8 51.1,-9.8 33.6,-0.6 33.6,29.6 			"/>
			<polygon class="st15" points="90.7,-0.6 73.2,-9.8 62,-9.8 62,14.5 90.7,29.6 			"/>
			<polygon class="st16" points="51.7,-9.8 33.6,-9.8 33.6,-0.3 			"/>
			<polygon class="st17" points="90.7,-9.8 72.6,-9.8 90.7,-0.3 			"/>
			<polygon class="st1" points="90.3,298.5 90.3,268.3 119,253.2 119,283.4 			"/>
			<polygon class="st1" points="147.4,298.5 147.4,268.3 118.7,253.2 118.7,283.4 			"/>
			<polygon class="st1" points="90.3,268.6 90.3,238.4 119,223.3 119,253.5 			"/>
			<polygon class="st1" points="147.4,268.6 147.4,238.4 118.7,223.3 118.7,253.5 			"/>
			<polygon class="st1" points="90.3,238.7 90.3,208.5 119,193.4 119,223.6 			"/>
			<polygon class="st8" points="147.4,238.7 147.4,208.5 118.7,193.4 118.7,223.6 			"/>
			<polygon class="st18" points="90.3,208.9 90.3,178.6 119,163.5 119,193.8 			"/>
			<polygon class="st19" points="147.4,208.9 147.4,178.6 118.7,163.5 118.7,193.8 			"/>
			<polygon class="st18" points="90.3,179 90.3,148.8 119,133.7 119,163.9 			"/>
			<polygon class="st18" points="147.4,179 147.4,148.8 118.7,133.7 118.7,163.9 			"/>
			<polygon class="st7" points="90.3,149.1 90.3,118.9 119,103.8 119,134 			"/>
			<polygon class="st20" points="147.4,149.1 147.4,118.9 118.7,103.8 118.7,134 			"/>
			<polygon class="st21" points="90.3,119.2 90.3,89 119,73.9 119,104.1 			"/>
			<polygon class="st22" points="147.4,119.2 147.4,89 118.7,73.9 118.7,104.1 			"/>
			<polygon class="st23" points="90.3,89.4 90.3,59.2 119,44 119,74.3 			"/>
			<polygon class="st24" points="147.4,89.4 147.4,59.2 118.7,44 118.7,74.3 			"/>
			<polygon class="st15" points="90.3,59.5 90.3,29.3 119,14.2 119,44.4 			"/>
			<polygon class="st17" points="147.4,59.5 147.4,29.3 118.7,14.2 118.7,44.4 			"/>
			<polygon class="st25" points="119,14.5 119,-9.8 107.8,-9.8 90.3,-0.6 90.3,29.6 			"/>
			<polygon class="st26" points="147.4,-0.6 129.9,-9.8 118.7,-9.8 118.7,14.5 147.4,29.6 			"/>
			<polygon class="st27" points="108.4,-9.8 90.3,-9.8 90.3,-0.3 			"/>
			<polygon class="st28" points="147.4,-9.8 129.3,-9.8 147.4,-0.3 			"/>
			<polygon class="st1" points="147,298.5 147,268.3 175.7,253.2 175.7,283.4 			"/>
			<polygon class="st1" points="204.1,298.5 204.1,268.3 175.4,253.2 175.4,283.4 			"/>
			<polygon class="st1" points="147,268.6 147,238.4 175.7,223.3 175.7,253.5 			"/>
			<polygon class="st1" points="204.1,268.6 204.1,238.4 175.4,223.3 175.4,253.5 			"/>
			<polygon class="st1" points="147,238.7 147,208.5 175.7,193.4 175.7,223.6 			"/>
			<polygon class="st1" points="204.1,238.7 204.1,208.5 175.4,193.4 175.4,223.6 			"/>
			<polygon class="st29" points="147,208.9 147,178.6 175.7,163.5 175.7,193.8 			"/>
			<polygon class="st1" points="204.1,208.9 204.1,178.6 175.4,163.5 175.4,193.8 			"/>
			<polygon class="st30" points="147,179 147,148.8 175.7,133.7 175.7,163.9 			"/>
			<polygon class="st9" points="204.1,179 204.1,148.8 175.4,133.7 175.4,163.9 			"/>
			<polygon class="st9" points="147,149.1 147,118.9 175.7,103.8 175.7,134 			"/>
			<polygon class="st31" points="204.1,149.1 204.1,118.9 175.4,103.8 175.4,134 			"/>
			<polygon class="st32" points="147,119.2 147,89 175.7,73.9 175.7,104.1 			"/>
			<polygon class="st10" points="204.1,119.2 204.1,89 175.4,73.9 175.4,104.1 			"/>
			<polygon class="st33" points="147,89.4 147,59.2 175.7,44 175.7,74.3 			"/>
			<polygon class="st4" points="204.1,89.4 204.1,59.2 175.4,44 175.4,74.3 			"/>
			<polygon class="st4" points="147,59.5 147,29.3 175.7,14.2 175.7,44.4 			"/>
			<polygon class="st34" points="204.1,59.5 204.1,29.3 175.4,14.2 175.4,44.4 			"/>
			<polygon class="st35" points="175.7,14.5 175.7,-9.8 164.5,-9.8 147,-0.6 147,29.6 			"/>
			<polygon class="st36" points="204.1,-0.6 186.6,-9.8 175.4,-9.8 175.4,14.5 204.1,29.6 			"/>
			<polygon class="st37" points="165.1,-9.8 147,-9.8 147,-0.3 			"/>
			<polygon class="st28" points="204.1,-9.8 186,-9.8 204.1,-0.3 			"/>
			<polygon class="st1" points="203.7,298.5 203.7,268.3 232.4,253.2 232.4,283.4 			"/>
			<polygon class="st38" points="260.8,298.5 260.8,268.3 232.1,253.2 232.1,283.4 			"/>
			<polygon class="st1" points="203.7,268.6 203.7,238.4 232.4,223.3 232.4,253.5 			"/>
			<polygon class="st38" points="260.8,268.6 260.8,238.4 232.1,223.3 232.1,253.5 			"/>
			<polygon class="st30" points="203.7,238.7 203.7,208.5 232.4,193.4 232.4,223.6 			"/>
			<polygon class="st39" points="260.8,238.7 260.8,208.5 232.1,193.4 232.1,223.6 			"/>
			<polygon class="st21" points="203.7,208.9 203.7,178.6 232.4,163.5 232.4,193.8 			"/>
			<polygon class="st18" points="260.8,208.9 260.8,178.6 232.1,163.5 232.1,193.8 			"/>
			<polygon class="st40" points="203.7,179 203.7,148.8 232.4,133.7 232.4,163.9 			"/>
			<polygon class="st41" points="260.8,179 260.8,148.8 232.1,133.7 232.1,163.9 			"/>
			<polygon class="st40" points="203.7,149.1 203.7,118.9 232.4,103.8 232.4,134 			"/>
			<polygon class="st42" points="260.8,149.1 260.8,118.9 232.1,103.8 232.1,134 			"/>
			<polygon class="st43" points="203.7,119.2 203.7,89 232.4,73.9 232.4,104.1 			"/>
			<polygon class="st12" points="260.8,119.2 260.8,89 232.1,73.9 232.1,104.1 			"/>
			<polygon class="st32" points="203.7,89.4 203.7,59.2 232.4,44 232.4,74.3 			"/>
			<polygon class="st4" points="260.8,89.4 260.8,59.2 232.1,44 232.1,74.3 			"/>
			<polygon class="st16" points="203.7,59.5 203.7,29.3 232.4,14.2 232.4,44.4 			"/>
			<polygon class="st44" points="260.8,59.5 260.8,29.3 232.1,14.2 232.1,44.4 			"/>
			<polygon class="st45" points="232.4,14.5 232.4,-9.8 221.2,-9.8 203.7,-0.6 203.7,29.6 			"/>
			<polygon class="st45" points="260.8,-0.6 243.3,-9.8 232.1,-9.8 232.1,14.5 260.8,29.6 			"/>
			<polygon class="st46" points="221.8,-9.8 203.7,-9.8 203.7,-0.3 			"/>
			<polygon class="st47" points="260.8,-9.8 242.7,-9.8 260.8,-0.3 			"/>
			<polygon class="st1" points="260.5,298.5 260.5,268.3 289.1,253.2 289.1,283.4 			"/>
			<polygon class="st1" points="315,266.9 288.8,253.2 288.8,283.4 315,297.2 			"/>
			<polygon class="st1" points="260.5,268.6 260.5,238.4 289.1,223.3 289.1,253.5 			"/>
			<polygon class="st1" points="315,237.1 288.8,223.3 288.8,253.5 315,267.3 			"/>
			<polygon class="st1" points="260.5,238.7 260.5,208.5 289.1,193.4 289.1,223.6 			"/>
			<polygon class="st1" points="315,207.2 288.8,193.4 288.8,223.6 315,237.4 			"/>
			<polygon class="st1" points="260.5,208.9 260.5,178.6 289.1,163.5 289.1,193.8 			"/>
			<polygon class="st1" points="315,177.3 288.8,163.5 288.8,193.8 315,207.5 			"/>
			<polygon class="st1" points="260.5,179 260.5,148.8 289.1,133.7 289.1,163.9 			"/>
			<polygon class="st1" points="315,147.5 288.8,133.7 288.8,163.9 315,177.7 			"/>
			<polygon class="st1" points="260.5,149.1 260.5,118.9 289.1,103.8 289.1,134 			"/>
			<polygon class="st1" points="315,117.6 288.8,103.8 288.8,134 315,147.8 			"/>
			<polygon class="st39" points="260.5,119.2 260.5,89 289.1,73.9 289.1,104.1 			"/>
			<polygon class="st1" points="315,87.7 288.8,73.9 288.8,104.1 315,117.9 			"/>
			<polygon class="st20" points="260.5,89.4 260.5,59.2 289.1,44 289.1,74.3 			"/>
			<polygon class="st1" points="315,57.8 288.8,44 288.8,74.3 315,88 			"/>
			<polygon class="st42" points="260.5,59.5 260.5,29.3 289.1,14.2 289.1,44.4 			"/>
			<polygon class="st1" points="315,28 288.8,14.2 288.8,44.4 315,58.2 			"/>
			<polygon class="st12" points="289.1,14.5 289.1,-9.8 277.9,-9.8 260.5,-0.6 260.5,29.6 			"/>
			<polygon class="st39" points="315,-1.9 300,-9.8 288.8,-9.8 288.8,14.5 315,28.3 			"/>
			<polygon class="st12" points="278.5,-9.8 260.5,-9.8 260.5,-0.3 			"/>
			<polygon class="st22" points="315,-9.8 299.4,-9.8 315,-1.6 			"/>
		</g>
		<g>
			<polygon class="st1" points="-20.4,307.3 2.7,295.2 2.7,264.3 -20.4,276.5 			"/>
			<polygon class="st1" points="31.6,310.6 31.6,279.8 2.3,264.3 2.3,295.2 			"/>
			<polygon class="st1" points="-20.4,276.8 2.7,264.7 2.7,233.9 -20.4,246 			"/>
			<polygon class="st1" points="31.6,280.1 31.6,249.3 2.3,233.9 2.3,264.7 			"/>
			<polygon class="st1" points="-20.4,246.3 2.7,234.2 2.7,203.4 -20.4,215.5 			"/>
			<polygon class="st1" points="31.6,249.6 31.6,218.8 2.3,203.4 2.3,234.2 			"/>
			<polygon class="st1" points="-20.4,215.8 2.7,203.7 2.7,172.9 -20.4,185 			"/>
			<polygon class="st1" points="31.6,219.1 31.6,188.3 2.3,172.9 2.3,203.7 			"/>
			<polygon class="st1" points="-20.4,185.3 2.7,173.2 2.7,142.4 -20.4,154.5 			"/>
			<polygon class="st1" points="31.6,188.6 31.6,157.8 2.3,142.4 2.3,173.2 			"/>
			<polygon class="st1" points="-20.4,154.8 2.7,142.7 2.7,111.9 -20.4,124 			"/>
			<polygon class="st1" points="31.6,158.1 31.6,127.3 2.3,111.9 2.3,142.7 			"/>
			<polygon class="st1" points="-20.4,124.3 2.7,112.2 2.7,81.4 -20.4,93.5 			"/>
			<polygon class="st7" points="31.6,127.6 31.6,96.8 2.3,81.4 2.3,112.2 			"/>
			<polygon class="st1" points="-20.4,93.8 2.7,81.7 2.7,50.9 -20.4,63 			"/>
			<polygon class="st23" points="31.6,97.1 31.6,66.3 2.3,50.9 2.3,81.7 			"/>
			<polygon class="st1" points="-20.4,63.4 2.7,51.2 2.7,20.4 -20.4,32.5 			"/>
			<polygon class="st14" points="31.6,66.6 31.6,35.8 2.3,20.4 2.3,51.2 			"/>
			<polygon class="st1" points="-20.4,32.9 2.7,20.7 2.7,-9.8 2,-9.8 -20.4,2 			"/>
			<polygon class="st3" points="31.6,5.3 2.9,-9.8 2.3,-9.8 2.3,20.7 31.6,36.1 			"/>
			<polygon class="st1" points="-20.4,2.4 2.7,-9.8 2.7,-9.8 -20.4,-9.8 			"/>
			<polygon class="st4" points="31.6,-9.8 2.3,-9.8 2.3,-9.8 31.6,5.6 			"/>
			<polygon class="st1" points="31.3,310.6 31.3,279.8 60.5,264.3 60.5,295.2 			"/>
			<polygon class="st1" points="89.5,310.6 89.5,279.8 60.2,264.3 60.2,295.2 			"/>
			<polygon class="st1" points="31.3,280.1 31.3,249.3 60.5,233.9 60.5,264.7 			"/>
			<polygon class="st1" points="89.5,280.1 89.5,249.3 60.2,233.9 60.2,264.7 			"/>
			<polygon class="st1" points="31.3,249.6 31.3,218.8 60.5,203.4 60.5,234.2 			"/>
			<polygon class="st5" points="89.5,249.6 89.5,218.8 60.2,203.4 60.2,234.2 			"/>
			<polygon class="st1" points="31.3,219.1 31.3,188.3 60.5,172.9 60.5,203.7 			"/>
			<polygon class="st1" points="89.5,219.1 89.5,188.3 60.2,172.9 60.2,203.7 			"/>
			<polygon class="st1" points="31.3,188.6 31.3,157.8 60.5,142.4 60.5,173.2 			"/>
			<polygon class="st1" points="89.5,188.6 89.5,157.8 60.2,142.4 60.2,173.2 			"/>
			<polygon class="st8" points="31.3,158.1 31.3,127.3 60.5,111.9 60.5,142.7 			"/>
			<polygon class="st7" points="89.5,158.1 89.5,127.3 60.2,111.9 60.2,142.7 			"/>
			<polygon class="st18" points="31.3,127.6 31.3,96.8 60.5,81.4 60.5,112.2 			"/>
			<polygon class="st9" points="89.5,127.6 89.5,96.8 60.2,81.4 60.2,112.2 			"/>
			<polygon class="st10" points="31.3,97.1 31.3,66.3 60.5,50.9 60.5,81.7 			"/>
			<polygon class="st11" points="89.5,97.1 89.5,66.3 60.2,50.9 60.2,81.7 			"/>
			<polygon class="st12" points="31.3,66.6 31.3,35.8 60.5,20.4 60.5,51.2 			"/>
			<polygon class="st13" points="89.5,66.6 89.5,35.8 60.2,20.4 60.2,51.2 			"/>
			<polygon class="st14" points="60.5,20.7 60.5,-9.8 59.9,-9.8 31.3,5.3 31.3,36.1 			"/>
			<polygon class="st15" points="89.5,5.3 60.8,-9.8 60.2,-9.8 60.2,20.7 89.5,36.1 			"/>
			<polygon class="st16" points="31.3,-9.8 31.3,5.6 60.5,-9.8 60.5,-9.8 			"/>
			<polygon class="st17" points="89.5,-9.8 60.2,-9.8 60.2,-9.8 89.5,5.6 			"/>
			<polygon class="st1" points="89.2,310.6 89.2,279.8 118.4,264.3 118.4,295.2 			"/>
			<polygon class="st1" points="147.4,310.6 147.4,279.8 118.1,264.3 118.1,295.2 			"/>
			<polygon class="st1" points="89.2,280.1 89.2,249.3 118.4,233.9 118.4,264.7 			"/>
			<polygon class="st1" points="147.4,280.1 147.4,249.3 118.1,233.9 118.1,264.7 			"/>
			<polygon class="st1" points="89.2,249.6 89.2,218.8 118.4,203.4 118.4,234.2 			"/>
			<polygon class="st8" points="147.4,249.6 147.4,218.8 118.1,203.4 118.1,234.2 			"/>
			<polygon class="st1" points="89.2,219.1 89.2,188.3 118.4,172.9 118.4,203.7 			"/>
			<polygon class="st19" points="147.4,219.1 147.4,188.3 118.1,172.9 118.1,203.7 			"/>
			<polygon class="st1" points="89.2,188.6 89.2,157.8 118.4,142.4 118.4,173.2 			"/>
			<polygon class="st18" points="147.4,188.6 147.4,157.8 118.1,142.4 118.1,173.2 			"/>
			<polygon class="st7" points="89.2,158.1 89.2,127.3 118.4,111.9 118.4,142.7 			"/>
			<polygon class="st20" points="147.4,158.1 147.4,127.3 118.1,111.9 118.1,142.7 			"/>
			<polygon class="st21" points="89.2,127.6 89.2,96.8 118.4,81.4 118.4,112.2 			"/>
			<polygon class="st22" points="147.4,127.6 147.4,96.8 118.1,81.4 118.1,112.2 			"/>
			<polygon class="st23" points="89.2,97.1 89.2,66.3 118.4,50.9 118.4,81.7 			"/>
			<polygon class="st24" points="147.4,97.1 147.4,66.3 118.1,50.9 118.1,81.7 			"/>
			<polygon class="st15" points="89.2,66.6 89.2,35.8 118.4,20.4 118.4,51.2 			"/>
			<polygon class="st17" points="147.4,66.6 147.4,35.8 118.1,20.4 118.1,51.2 			"/>
			<polygon class="st25" points="118.4,20.7 118.4,-9.8 117.8,-9.8 89.2,5.3 89.2,36.1 			"/>
			<polygon class="st26" points="147.4,5.3 118.7,-9.8 118.1,-9.8 118.1,20.7 147.4,36.1 			"/>
			<polygon class="st27" points="89.2,-9.8 89.2,5.6 118.4,-9.8 118.4,-9.8 			"/>
			<polygon class="st28" points="147.4,-9.8 118.1,-9.8 118.1,-9.8 147.4,5.6 			"/>
			<polygon class="st1" points="147,310.6 147,279.8 176.3,264.3 176.3,295.2 			"/>
			<polygon class="st1" points="205.2,310.6 205.2,279.8 176,264.3 176,295.2 			"/>
			<polygon class="st1" points="147,280.1 147,249.3 176.3,233.9 176.3,264.7 			"/>
			<polygon class="st1" points="205.2,280.1 205.2,249.3 176,233.9 176,264.7 			"/>
			<polygon class="st1" points="147,249.6 147,218.8 176.3,203.4 176.3,234.2 			"/>
			<polygon class="st1" points="205.2,249.6 205.2,218.8 176,203.4 176,234.2 			"/>
			<polygon class="st29" points="147,219.1 147,188.3 176.3,172.9 176.3,203.7 			"/>
			<polygon class="st1" points="205.2,219.1 205.2,188.3 176,172.9 176,203.7 			"/>
			<polygon class="st30" points="147,188.6 147,157.8 176.3,142.4 176.3,173.2 			"/>
			<polygon class="st1" points="205.2,188.6 205.2,157.8 176,142.4 176,173.2 			"/>
			<polygon class="st9" points="147,158.1 147,127.3 176.3,111.9 176.3,142.7 			"/>
			<polygon class="st31" points="205.2,158.1 205.2,127.3 176,111.9 176,142.7 			"/>
			<polygon class="st32" points="147,127.6 147,96.8 176.3,81.4 176.3,112.2 			"/>
			<polygon class="st10" points="205.2,127.6 205.2,96.8 176,81.4 176,112.2 			"/>
			<polygon class="st33" points="147,97.1 147,66.3 176.3,50.9 176.3,81.7 			"/>
			<polygon class="st4" points="205.2,97.1 205.2,66.3 176,50.9 176,81.7 			"/>
			<polygon class="st4" points="147,66.6 147,35.8 176.3,20.4 176.3,51.2 			"/>
			<polygon class="st34" points="205.2,66.6 205.2,35.8 176,20.4 176,51.2 			"/>
			<polygon class="st35" points="176.3,20.7 176.3,-9.8 175.7,-9.8 147,5.3 147,36.1 			"/>
			<polygon class="st36" points="205.2,5.3 176.6,-9.8 176,-9.8 176,20.7 205.2,36.1 			"/>
			<polygon class="st37" points="147,-9.8 147,5.6 176.3,-9.8 176.3,-9.8 			"/>
			<polygon class="st28" points="205.2,-9.8 176,-9.8 176,-9.8 205.2,5.6 			"/>
			<polygon class="st1" points="204.9,310.6 204.9,279.8 234.2,264.3 234.2,295.2 			"/>
			<polygon class="st1" points="263.1,310.6 263.1,279.8 233.9,264.3 233.9,295.2 			"/>
			<polygon class="st1" points="204.9,280.1 204.9,249.3 234.2,233.9 234.2,264.7 			"/>
			<polygon class="st1" points="263.1,280.1 263.1,249.3 233.9,233.9 233.9,264.7 			"/>
			<polygon class="st1" points="204.9,249.6 204.9,218.8 234.2,203.4 234.2,234.2 			"/>
			<polygon class="st1" points="263.1,249.6 263.1,218.8 233.9,203.4 233.9,234.2 			"/>
			<polygon class="st1" points="204.9,219.1 204.9,188.3 234.2,172.9 234.2,203.7 			"/>
			<polygon class="st1" points="263.1,219.1 263.1,188.3 233.9,172.9 233.9,203.7 			"/>
			<polygon class="st1" points="204.9,188.6 204.9,157.8 234.2,142.4 234.2,173.2 			"/>
			<polygon class="st1" points="263.1,188.6 263.1,157.8 233.9,142.4 233.9,173.2 			"/>
			<polygon class="st40" points="204.9,158.1 204.9,127.3 234.2,111.9 234.2,142.7 			"/>
			<polygon class="st1" points="263.1,158.1 263.1,127.3 233.9,111.9 233.9,142.7 			"/>
			<polygon class="st43" points="204.9,127.6 204.9,96.8 234.2,81.4 234.2,112.2 			"/>
			<polygon class="st12" points="263.1,127.6 263.1,96.8 233.9,81.4 233.9,112.2 			"/>
			<polygon class="st32" points="204.9,97.1 204.9,66.3 234.2,50.9 234.2,81.7 			"/>
			<polygon class="st4" points="263.1,97.1 263.1,66.3 233.9,50.9 233.9,81.7 			"/>
			<polygon class="st16" points="204.9,66.6 204.9,35.8 234.2,20.4 234.2,51.2 			"/>
			<polygon class="st44" points="263.1,66.6 263.1,35.8 233.9,20.4 233.9,51.2 			"/>
			<polygon class="st45" points="234.2,20.7 234.2,-9.8 233.6,-9.8 204.9,5.3 204.9,36.1 			"/>
			<polygon class="st45" points="263.1,5.3 234.5,-9.8 233.9,-9.8 233.9,20.7 263.1,36.1 			"/>
			<polygon class="st46" points="204.9,-9.8 204.9,5.6 234.2,-9.8 234.2,-9.8 			"/>
			<polygon class="st47" points="263.1,-9.8 233.9,-9.8 233.9,-9.8 263.1,5.6 			"/>
			<polygon class="st1" points="262.8,310.6 262.8,279.8 292.1,264.3 292.1,295.2 			"/>
			<polygon class="st1" points="315,276.6 291.7,264.3 291.7,295.2 315,307.4 			"/>
			<polygon class="st1" points="262.8,280.1 262.8,249.3 292.1,233.9 292.1,264.7 			"/>
			<polygon class="st1" points="315,246.1 291.7,233.9 291.7,264.7 315,276.9 			"/>
			<polygon class="st1" points="262.8,249.6 262.8,218.8 292.1,203.4 292.1,234.2 			"/>
			<polygon class="st1" points="315,215.6 291.7,203.4 291.7,234.2 315,246.4 			"/>
			<polygon class="st1" points="262.8,219.1 262.8,188.3 292.1,172.9 292.1,203.7 			"/>
			<polygon class="st1" points="315,185.1 291.7,172.9 291.7,203.7 315,215.9 			"/>
			<polygon class="st1" points="262.8,188.6 262.8,157.8 292.1,142.4 292.1,173.2 			"/>
			<polygon class="st1" points="315,154.6 291.7,142.4 291.7,173.2 315,185.4 			"/>
			<polygon class="st1" points="262.8,158.1 262.8,127.3 292.1,111.9 292.1,142.7 			"/>
			<polygon class="st1" points="315,124.1 291.7,111.9 291.7,142.7 315,154.9 			"/>
			<polygon class="st18" points="262.8,127.6 262.8,96.8 292.1,81.4 292.1,112.2 			"/>
			<polygon class="st1" points="315,93.6 291.7,81.4 291.7,112.2 315,124.4 			"/>
			<polygon class="st20" points="262.8,97.1 262.8,66.3 292.1,50.9 292.1,81.7 			"/>
			<polygon class="st1" points="315,63.1 291.7,50.9 291.7,81.7 315,93.9 			"/>
			<polygon class="st42" points="262.8,66.6 262.8,35.8 292.1,20.4 292.1,51.2 			"/>
			<polygon class="st1" points="315,32.6 291.7,20.4 291.7,51.2 315,63.4 			"/>
			<polygon class="st12" points="292.1,20.7 292.1,-9.8 291.5,-9.8 262.8,5.3 262.8,36.1 			"/>
			<polygon class="st39" points="315,2.1 292.4,-9.8 291.7,-9.8 291.7,20.7 315,33 			"/>
			<polygon class="st12" points="262.8,-9.8 262.8,5.6 292.1,-9.8 292.1,-9.8 			"/>
			<polygon class="st22" points="315,-9.8 291.7,-9.8 291.7,-9.8 315,2.5 			"/>
		</g>
	</g>
</g>
</svg>
