<svg height="496pt" viewBox="0 0 496 496.432" width="496pt" xmlns="http://www.w3.org/2000/svg"><path fill="#FFFFFF" d="m32.214844 32h16v16h-16zm0 0"/><path fill="#FFFFFF" d="m64.214844 32h16v16h-16zm0 0"/><path fill="#FFFFFF" d="m96.214844 32h16v16h-16zm0 0"/><path fill="#FFFFFF" d="m252.441406 183.945312-4.226562-2.632812-4.222656 2.632812c-32.761719 20.375-70.351563 33.582032-108.726563 38.191407l-7.050781.847656v65.230469c0 76.664062 45.9375 144.625 117.015625 173.144531l2.984375 1.191406 2.984375-1.191406c71.082031-28.527344 117.015625-96.488281 117.015625-173.152344v-65.230469l-7.046875-.839843c-38.367188-4.609375-75.96875-17.816407-108.726563-38.191407zm99.773438 104.261719c0 69.007813-40.710938 130.3125-104 157.066407-63.285156-26.761719-104-88.058594-104-157.066407v-51.128906c36.59375-5.351563 72.3125-18.046875 104-36.972656 31.6875 18.925781 67.410156 31.621093 104 36.972656zm0 0"/><path fill="#FFFFFF" d="m496.214844 0h-496v448h165.578125c22.445312 20.929688 49.40625 37.425781 79.894531 47.59375l2.527344.839844 2.527344-.839844c30.488281-10.160156 57.449218-26.664062 79.898437-47.59375h165.574219zm-16 16v48h-464v-48zm-232 463.550781c-81.460938-28.335937-136-104.886719-136-191.335937v-80.351563c48.59375-1.597656 96.394531-17.742187 136-45.960937 39.609375 28.21875 87.410156 44.355468 136 45.960937v80.34375c0 86.457031-54.535156 163.007813-136 191.34375zm97.992187-47.550781c33.992188-38.902344 54.007813-89.503906 54.007813-143.792969v-96.207031h-8c-49.863282 0-99.304688-16.480469-139.199219-46.398438l-4.800781-3.601562-4.800782 3.601562c-39.894531 29.917969-89.335937 46.398438-139.199218 46.398438h-8v96.207031c0 54.289063 20.015625 104.890625 54.007812 143.792969h-134.007812v-352h464v352zm0 0"/><path fill="#FFFFFF" d="m208.214844 272v25.472656c-9.285156 3.3125-16 12.113282-16 22.527344v64c0 13.230469 10.769531 24 24 24h64c13.234375 0 24-10.769531 24-24v-64c0-10.414062-6.710938-19.214844-16-22.527344v-25.472656c0-22.054688-17.941406-40-40-40-22.054688 0-40 17.945312-40 40zm80 112c0 4.40625-3.589844 8-8 8h-64c-4.40625 0-8-3.59375-8-8v-64c0-4.40625 3.59375-8 8-8h64c4.410156 0 8 3.59375 8 8zm-16-112v24h-48v-24c0-13.230469 10.769531-24 24-24 13.234375 0 24 10.769531 24 24zm0 0"/><path fill="#FFFFFF" d="m248.214844 320c-13.230469 0-24 10.769531-24 24 0 10.414062 6.714844 19.214844 16 22.527344v17.472656h16v-17.472656c9.289062-3.3125 16-12.113282 16-22.527344 0-13.230469-10.765625-24-24-24zm0 32c-4.40625 0-8-3.59375-8-8s3.59375-8 8-8c4.410156 0 8 3.59375 8 8s-3.589844 8-8 8zm0 0"/><path fill="#FFFFFF" d="m32.214844 96h224v16h-224zm0 0"/><path fill="#FFFFFF" d="m32.214844 128h160v16h-160zm0 0"/><path fill="#FFFFFF" d="m32.214844 160h96v16h-96zm0 0"/></svg>