<svg height="512pt" viewBox="0 -53 512 511" width="512pt" xmlns="http://www.w3.org/2000/svg"><path fill="#FFFFFF" d="m334.996094 117.171875c.40625-3.304687 1.003906-6.570313 1.003906-10.003906 0-3.4375-.597656-6.699219-1.003906-10.007813l19.222656-14.546875c4.289062-3.242187 5.484375-9.175781 2.792969-13.847656l-17.257813-29.867187c-2.6875-4.648438-8.425781-6.589844-13.375-4.5l-22.121094 9.324218c-5.398437-4.117187-11.136718-7.746094-17.472656-10.390625l-2.945312-23.488281c-.683594-5.332031-5.207032-9.34375-10.582032-9.34375h-34.496093c-5.375 0-9.917969 4.011719-10.582031 9.34375l-2.941407 23.488281c-6.359375 2.644531-12.097656 6.292969-17.496093 10.390625l-22.097657-9.324218c-4.972656-2.089844-10.710937-.171876-13.398437 4.5l-17.238282 29.867187c-2.6875 4.652344-1.492187 10.582031 2.792969 13.847656l19.222657 14.546875c-.425782 3.308594-1.023438 6.570313-1.023438 10.007813 0 3.433593.597656 6.699219 1.003906 10.003906l-19.203125 14.550781c-4.285156 3.242188-5.503906 9.171875-2.792969 13.84375l17.238282 29.867188c2.6875 4.652344 8.425781 6.589844 13.375 4.5l22.121094-9.34375c5.398437 4.117187 11.136718 7.746094 17.472656 10.390625l2.945312 23.488281c.683594 5.355469 5.207032 9.363281 10.582032 9.363281h34.496093c5.375 0 9.917969-4.007812 10.582031-9.34375l2.941407-23.488281c6.335937-2.644531 12.097656-6.292969 17.472656-10.386719l22.121094 9.320313c4.953125 2.089844 10.691406.171875 13.378906-4.5l17.257813-29.867188c2.6875-4.652344 1.492187-10.582031-2.792969-13.84375zm-78.996094 32.660156c-23.574219 0-42.667969-19.09375-42.667969-42.664062 0-23.574219 19.09375-42.667969 42.667969-42.667969s42.667969 19.09375 42.667969 42.667969c0 23.570312-19.09375 42.664062-42.667969 42.664062zm0 0"/><path fill="#FFFFFF" d="m490.667969 363.167969h-21.335938v-213.335938c0-23.570312-19.09375-42.664062-42.664062-42.664062h-21.335938c-11.773437 0-21.332031 9.554687-21.332031 21.332031s9.558594 21.332031 21.332031 21.332031h21.335938v213.335938h-341.335938v-213.335938h21.335938c11.773437 0 21.332031-9.554687 21.332031-21.332031s-9.558594-21.332031-21.332031-21.332031h-21.335938c-23.570312 0-42.664062 19.09375-42.664062 42.664062v213.335938h-21.335938c-11.773437 0-21.332031 9.535156-21.332031 21.332031s9.558594 21.332031 21.332031 21.332031h469.335938c11.773437 0 21.332031-9.535156 21.332031-21.332031s-9.558594-21.332031-21.332031-21.332031zm0 0"/></svg>