<?xml version="1.0" encoding="iso-8859-1"?>
<!-- Generator: Adobe Illustrator 19.0.0, SVG Export Plug-In . SVG Version: 6.00 Build 0)  -->
<svg version="1.1" id="Capa_1" xmlns="http://www.w3.org/2000/svg" x="0px" y="0px"
     viewBox="0 0 512 512" style="enable-background:new 0 0 512 512;" xml:space="preserve">
<g>
	<g>
		<path fill="#FCFCFC" d="M509.728,327.804l-48-80.032c-2.912-4.832-8.096-7.776-13.728-7.776h-80c-8.832,0-16,7.168-16,16v112H0v48
			c0,8.832,7.168,16,16,16h50.944c6.624,18.592,24.224,32,45.056,32c20.832,0,38.432-13.408,45.056-32H352h34.944
			c6.624,18.592,24.224,32,45.056,32c20.832,0,38.432-13.408,45.056-32H496c8.832,0,16-7.168,16-16v-80
			C511.232,333.212,510.496,330.588,509.728,327.804z M112,431.996c-8.832,0-16-7.2-16-16s7.168-16,16-16c8.832,0,16,7.2,16,16
			S120.832,431.996,112,431.996z M432,431.996c-8.8,0-16-7.2-16-16s7.2-16,16-16s16,7.2,16,16S440.8,431.996,432,431.996z
			 M384,335.996v-64h54.944l38.4,64H384z"/>
	</g>
</g>
<g>
	<g>
		<path fill="#FCFCFC" d="M32,239.996v80c0,8.832,7.168,16,16,16h96v-96H32z"/>
	</g>
</g>
<g>
	<g>
		<path fill="#FCFCFC" d="M304,143.996h-87.008c10.528-4.16,19.808-8.928,24.96-14.048c18.72-18.72,18.72-49.152,0-67.872
			c-18.688-18.72-49.152-18.72-67.872,0c-5.152,5.12-9.92,14.4-14.08,24.928c-4.16-10.528-8.928-19.808-14.048-24.96
			c-18.72-18.72-49.152-18.72-67.872,0c-18.72,18.72-18.72,49.152,0,67.872c5.12,5.152,14.4,9.92,24.928,14.08H16
			c-8.832,0-16,7.168-16,16v32c0,8.832,7.168,16,16,16h128v-51.36c4.736,1.184,9.152,2.24,12.544,2.976
			c1.152,0.256,2.304,0.384,3.456,0.384s2.304-0.128,3.456-0.384c3.392-0.736,7.808-1.792,12.544-2.976v51.36h128
			c8.832,0,16-7.168,16-16v-32C320,151.164,312.832,143.996,304,143.996z M100.672,107.324c-6.24-6.24-6.24-16.384,0-22.624
			c3.136-3.136,7.232-4.704,11.328-4.704s8.192,1.536,11.296,4.672c3.424,3.616,9.216,18.784,14.528,37.152
			C119.456,116.508,104.288,110.716,100.672,107.324z M196.672,84.668c3.136-3.104,7.232-4.672,11.328-4.672
			s8.192,1.536,11.328,4.672c6.24,6.24,6.24,16.384,0,22.624c-3.616,3.424-18.784,9.216-37.152,14.528
			C187.488,103.452,193.248,88.284,196.672,84.668z"/>
	</g>
</g>
<g>
	<g>
		<path fill="#FCFCFC" d="M176,239.996v96h96c8.832,0,16-7.168,16-16v-80H176z"/>
	</g>
</g>
<g>
</g>
<g>
</g>
<g>
</g>
<g>
</g>
<g>
</g>
<g>
</g>
<g>
</g>
<g>
</g>
<g>
</g>
<g>
</g>
<g>
</g>
<g>
</g>
<g>
</g>
<g>
</g>
<g>
</g>
</svg>
