<?xml version="1.0" encoding="UTF-8"?>
<svg width="1280px" height="571px" viewBox="0 0 1280 571" version="1.1" xmlns="http://www.w3.org/2000/svg">
    <!-- Generator: Sketch 47.1 (45422) - http://www.bohemiancoding.com/sketch -->
    <title>footer-bg</title>
    <desc>Created with Sketch.</desc>
    <defs>
        <linearGradient x1="50%" y1="0%" x2="50%" y2="100%" id="linearGradient-1">
            <stop stop-color="#FCFCFD" offset="0%"></stop>
            <stop stop-color="#F1F6FF" offset="100%"></stop>
        </linearGradient>
    </defs>
    <g id="02-August" stroke="none" stroke-width="1" fill="none" fill-rule="evenodd" opacity="0.600000024">
        <g id="footer-bg" transform="translate(640.000000, 285.000000) scale(1, -1) translate(-640.000000, -285.000000) translate(0.000000, -1.000000)" fill="url(#linearGradient-1)">
            <path d="M1280,1.09109834 L1280,565.146402 C1232.92613,565.79461 1169.67079,562.983582 1090.23397,556.713316 C971.078751,547.307917 963.778515,535.03404 844.710147,532.702653 C725.64178,530.371266 718.932314,557.723348 541.593213,549.64057 C364.254113,541.557792 325.19547,503.311464 195.322051,503.311464 C108.739772,503.311464 43.6324214,523.92311 -9.09494702e-13,565.146402 L-9.09494702e-13,1.09109834 C43.6324214,42.3143899 108.739772,62.9260357 195.322051,62.9260357 C325.19547,62.9260357 364.254113,24.6797086 541.593213,16.5969304 C718.932314,8.51415215 725.64178,35.8662337 844.710147,33.5348471 C963.778515,31.2034605 971.078751,18.9295834 1090.23397,9.52418445 C1169.67079,3.25391846 1232.92613,0.442889755 1280,1.09109834 Z" id="Combined-Shape" style="mix-blend-mode: multiply;"></path>
            <path d="M-9.09494702e-13,1.09109834 L-9.09494702e-13,565.146402 C37.5777611,575.16053 100.833103,572.349502 189.766027,556.713316 C323.165412,533.259037 300.932377,493.63326 420.000745,491.301874 C539.069112,488.970487 618.303971,573.22918 795.643072,565.146402 C972.982172,557.063624 954.80453,503.311464 1084.67795,503.311464 C1171.26023,503.311464 1236.36758,523.92311 1280,565.146402 L1280,1.09109834 C1236.36758,42.3143899 1171.26023,62.9260357 1084.67795,62.9260357 C954.80453,62.9260357 915.086807,24.3290698 737.747706,16.2462916 C560.408605,8.16351336 549.561028,60.7639748 430.49266,58.4325882 C311.424292,56.1012015 279.923131,21.533083 189.766027,9.52418445 C99.6089223,-2.48471411 47.0738696,0.442889755 -9.09494702e-13,1.09109834 Z" id="Combined-Shape-Copy" style="mix-blend-mode: multiply;"></path>
        </g>
    </g>
</svg>