<?xml version="1.0" encoding="iso-8859-1"?>
<!-- Generator: Adobe Illustrator 19.0.0, SVG Export Plug-In . SVG Version: 6.00 Build 0)  -->
<svg version="1.1" id="Capa_1" xmlns="http://www.w3.org/2000/svg" x="0px" y="0px"
     viewBox="0 0 512 512" style="enable-background:new 0 0 512 512;" xml:space="preserve">
<g>
	<g>
		<path fill="#FFFFFF" d="M480,400V112c0-17.632-14.336-32-32-32H64c-17.632,0-32,14.368-32,32v288H0v16c0,8.832,7.168,16,16,16h480
			c8.832,0,16-7.168,16-16v-16H480z M448,368H64V112h384V368z"/>
	</g>
</g>
<g>
	<g>
		<path fill="#FFFFFF" d="M256,224c-8.832,0-16-7.168-16-16c0-8.832,7.168-16,16-16h32c8.832,0,16-7.168,16-16c0-8.832-7.168-16-16-16h-16v-16
			c0-8.832-7.168-16-16-16c-8.832,0-16,7.168-16,16v18.944c-18.592,6.624-32,24.224-32,45.056c0,26.464,21.536,48,48,48
			c8.832,0,16,7.2,16,16s-7.168,16-16,16h-32c-8.832,0-16,7.168-16,16c0,8.832,7.168,16,16,16h16v16c0,8.832,7.168,16,16,16
			c8.832,0,16-7.168,16-16v-18.944c18.592-6.624,32-24.224,32-45.056C304,245.536,282.464,224,256,224z"/>
	</g>
</g>
<g>
</g>
<g>
</g>
<g>
</g>
<g>
</g>
<g>
</g>
<g>
</g>
<g>
</g>
<g>
</g>
<g>
</g>
<g>
</g>
<g>
</g>
<g>
</g>
<g>
</g>
<g>
</g>
<g>
</g>
</svg>
