<svg height="512pt" viewBox="0 0 512 512" width="512pt" xmlns="http://www.w3.org/2000/svg"><path fill="#FFFFFF" d="m474.667969 426.667969h-437.335938c-20.585937 0-37.332031-16.746094-37.332031-37.335938v-266.664062c0-20.589844 16.746094-37.335938 37.332031-37.335938h74.667969c8.832031 0 16 7.167969 16 16s-7.167969 16-16 16h-74.667969c-2.941406 0-5.332031 2.390625-5.332031 5.335938v266.664062c0 2.945313 2.390625 5.335938 5.332031 5.335938h437.335938c2.941406 0 5.332031-2.390625 5.332031-5.335938v-266.664062c0-2.945313-2.390625-5.335938-5.332031-5.335938h-74.667969c-8.832031 0-16-7.167969-16-16s7.167969-16 16-16h74.667969c20.585937 0 37.332031 16.746094 37.332031 37.335938v266.664062c0 20.589844-16.746094 37.335938-37.332031 37.335938zm0 0"/><path fill="#FFFFFF" d="m346.667969 512h-181.335938c-8.832031 0-16-7.167969-16-16s7.167969-16 16-16h181.335938c8.832031 0 16 7.167969 16 16s-7.167969 16-16 16zm0 0"/><path fill="#FFFFFF" d="m256 512c-8.832031 0-16-7.167969-16-16v-85.332031c0-8.832031 7.167969-16 16-16s16 7.167969 16 16v85.332031c0 8.832031-7.167969 16-16 16zm0 0"/><path fill="#FFFFFF" d="m256 192c-41.171875 0-74.667969-33.492188-74.667969-74.667969 0-41.171875 33.496094-74.664062 74.667969-74.664062s74.667969 33.492187 74.667969 74.664062c0 41.175781-33.496094 74.667969-74.667969 74.667969zm0-117.332031c-23.53125 0-42.667969 19.132812-42.667969 42.664062s19.136719 42.667969 42.667969 42.667969 42.667969-19.136719 42.667969-42.667969-19.136719-42.664062-42.667969-42.664062zm0 0"/><path fill="#FFFFFF" d="m256 234.667969c-8.832031 0-16-7.167969-16-16v-42.667969c0-8.832031 7.167969-16 16-16s16 7.167969 16 16v42.667969c0 8.832031-7.167969 16-16 16zm0 0"/><path fill="#FFFFFF" d="m256 74.667969c-8.832031 0-16-7.167969-16-16v-42.667969c0-8.832031 7.167969-16 16-16s16 7.167969 16 16v42.667969c0 8.832031-7.167969 16-16 16zm0 0"/><path fill="#FFFFFF" d="m306.792969 104.105469c-5.546875 0-10.921875-2.859375-13.863281-8-4.417969-7.65625-1.816407-17.429688 5.84375-21.867188l36.90625-21.332031c7.660156-4.457031 17.449218-1.792969 21.84375 5.847656 4.417968 7.65625 1.816406 17.425782-5.84375 21.863282l-36.90625 21.335937c-2.515626 1.472656-5.269532 2.152344-7.980469 2.152344zm0 0"/><path fill="#FFFFFF" d="m168.339844 183.894531c-5.546875 0-10.921875-2.859375-13.863282-8-4.4375-7.636719-1.835937-17.429687 5.84375-21.847656l36.90625-21.332031c7.679688-4.4375 17.449219-1.769532 21.84375 5.84375 4.417969 7.660156 1.816407 17.429687-5.84375 21.867187l-36.90625 21.335938c-2.539062 1.449219-5.269531 2.132812-7.980468 2.132812zm0 0"/><path fill="#FFFFFF" d="m205.207031 104.105469c-2.710937 0-5.464843-.679688-7.980469-2.152344l-36.90625-21.335937c-7.679687-4.414063-10.28125-14.207032-5.867187-21.863282 4.394531-7.640625 14.1875-10.304687 21.867187-5.847656l36.90625 21.332031c7.660157 4.4375 10.261719 14.210938 5.84375 21.867188-2.941406 5.140625-8.316406 8-13.863281 8zm0 0"/><path fill="#FFFFFF" d="m343.660156 183.894531c-2.710937 0-5.460937-.683593-7.980468-2.15625l-36.90625-21.332031c-7.660157-4.4375-10.261719-14.207031-5.84375-21.867188 4.394531-7.617187 14.164062-10.28125 21.84375-5.847656l36.90625 21.335938c7.660156 4.4375 10.261718 14.207031 5.84375 21.867187-2.941407 5.140625-8.316407 8-13.863282 8zm0 0"/></svg>