<svg height="512pt" viewBox="-145 0 512 512" width="512pt" xmlns="http://www.w3.org/2000/svg"><path fill="#FFFFFF" d="m111.03125 287c-8.269531 0-15 6.730469-15 15s6.730469 15 15 15c8.273438 0 15-6.730469 15-15s-6.726562-15-15-15zm0 0"/><path fill="#FFFFFF" d="m111.03125 407c-8.269531 0-15 6.730469-15 15s6.730469 15 15 15c8.273438 0 15-6.730469 15-15s-6.726562-15-15-15zm0 0"/><path fill="#FFFFFF" d="m192.0625 212h-162.0625c-16.570312 0-30 13.429688-30 30v240c0 16.570312 13.429688 30 30 30h162.0625c16.570312 0 30-13.429688 30-30v-240c0-16.570312-13.429688-30-30-30zm-81.03125 255c-24.8125 0-45-20.1875-45-45s20.1875-45 45-45 45 20.1875 45 45-20.1875 45-45 45zm0-120c-24.8125 0-45-20.1875-45-45s20.1875-45 45-45 45 20.1875 45 45-20.1875 45-45 45zm0 0"/><path fill="#FFFFFF" d="m173.054688 137c0-8.285156-6.71875-15-15-15h-94.042969c-8.285157 0-15 6.714844-15 15v45h124.042969zm0 0"/><path fill="#FFFFFF" d="m141.03125 15c0-8.285156-6.714844-15-15-15h-30c-8.285156 0-15 6.714844-15 15v76.5h60zm0 0"/></svg>