<svg height="448pt" viewBox="-9 0 448 448" width="448pt" xmlns="http://www.w3.org/2000/svg"><path fill="#FFFFFF" d="m215.199219 120c-4.417969 0-8 3.582031-8 8v56h24c2.722656.035156 5.421875.492188 8 1.359375v-57.359375c0-4.417969-3.582031-8-8-8zm0 0"/><path fill="#FFFFFF" d="m311.199219 120h16c4.417969 0 8 3.582031 8 8v80c0 4.417969-3.582031 8-8 8h-16c-4.417969 0-8-3.582031-8-8v-80c0-4.417969 3.582031-8 8-8zm0 0"/><path fill="#FFFFFF" d="m255.039062 105.519531c-12.351562-6.242187-25.996093-9.503906-39.839843-9.519531-12.621094-.011719-25.097657 2.714844-36.558594 8h4.558594c5.925781.015625 11.628906 2.242188 16 6.238281 4.371093-3.996093 10.078125-6.222656 16-6.238281h16c5.925781.015625 11.628906 2.242188 16 6.238281 2.300781-2.039062 4.960937-3.640625 7.839843-4.71875zm0 0"/><path fill="#FFFFFF" d="m327.199219 232h-16c-5.921875-.015625-11.628907-2.242188-16-6.238281-4.371094 3.996093-10.074219 6.222656-16 6.238281h-16.078125c-4.230469-.019531-8.375-1.179688-12-3.359375-8.40625 21.328125-28.996094 35.351563-51.921875 35.359375h-1.519531c12.625 9.34375 21.570312 22.820312 25.28125 38.078125 3.519531 14.375 3.519531 29.386719 0 43.761719l-15.519532-3.679688c2.878906-11.910156 2.878906-24.332031 0-36.238281-5.363281-21.601563-19.679687-30.320313-36.242187-40.402344l-2.480469-1.519531h-25.519531v-16h56c22.09375 0 40-17.910156 40-40 .089843-2.148438-.722657-4.234375-2.246094-5.753906-1.519531-1.519532-3.605469-2.335938-5.753906-2.246094h-111.4375c-23.113281 3.761719-40.203125 23.546875-40.5625 46.960938l15.761719 63.117187c7.277343 25.523437 28.878906 48.480469 37.839843 57.203125 1.527344 1.527344 2.390625 3.597656 2.398438 5.757812v50.960938c.039062 13.238281 10.761719 23.960938 24 24h112c13.238281-.039062 23.960937-10.761719 24-24v-48.640625c-.015625-2.300781.976562-4.496094 2.722656-6 21.222656-17.082031 36.855469-40.121094 44.878906-66.160156l13.359375-80.078125c-1.761718-3.042969-3.761718-6.082032-5.839844-9.042969-2.734374 10.539063-12.234374 17.898437-23.121093 17.921875zm-88 200v-16c13.253906 0 24-10.746094 24-24h16c-.027344 22.082031-17.917969 39.972656-40 40zm0 0"/><path fill="#FFFFFF" d="m263.199219 120h16c4.417969 0 8 3.582031 8 8v80c0 4.417969-3.582031 8-8 8h-16c-4.417969 0-8-3.582031-8-8v-80c0-4.417969 3.582031-8 8-8zm0 0"/><path fill="#FFFFFF" d="m143.199219 133.441406c-.640625.878906-1.199219 1.679688-1.839844 2.558594h1.839844zm0 0"/><path fill="#FFFFFF" d="m167.199219 120c-4.417969 0-8 3.582031-8 8v56h32v-56c0-4.417969-3.582031-8-8-8zm0 0"/><path fill="#FFFFFF" d="m86.078125 198.558594c1.984375-3.03125 3.671875-6.246094 5.042969-9.597656 1.183594-3.023438 4.113281-4.996094 7.359375-4.960938h44.71875v-32h-44.71875c-3.277344.003906-6.226563-1.996094-7.441407-5.039062-8.480468-21.175782-29.027343-35.03125-51.839843-34.960938-14.652344.027344-28.714844 5.765625-39.199219 16h31.199219c4.417969 0 8 3.582031 8 8v64c0 4.417969-3.582031 8-8 8h-31.199219c10.484375 10.234375 24.546875 15.972656 39.199219 16 12.90625-.015625 25.402343-4.511719 35.359375-12.71875 3.257812-4.734375 7.132812-9.011719 11.519531-12.722656zm0 0"/><path fill="#FFFFFF" d="m391.199219 200v-64c0-4.417969 3.582031-8 8-8h31.199219c-10.605469-10.417969-24.929688-16.175781-39.796876-15.996094-14.867187.179688-29.050781 6.285156-39.402343 16.957032v63.039062c8.503906 7.070312 15.425781 15.847656 20.320312 25.761719.484375.917969.785157 1.921875.878907 2.957031 6.027343 2.183594 12.390624 3.292969 18.800781 3.28125 14.652343-.027344 28.714843-5.765625 39.199219-16h-31.199219c-4.417969 0-8-3.582031-8-8zm0 0"/><path fill="#FFFFFF" d="m103.679688 136h19.28125c14.515624-27.953125 40.933593-47.8125 71.820312-53.988281 30.890625-6.171875 62.910156 2.003906 87.058594 22.226562 4.96875.570313 9.636718 2.667969 13.359375 6 4.371093-3.996093 10.078125-6.222656 16-6.238281h16c7.046875.011719 13.726562 3.148438 18.242187 8.558594 9.28125-7.714844 20.378906-12.949219 32.238282-15.199219l-11.601563-20-41.039063 17.921875c-6.050781 2.589844-13.070312 1.261719-17.757812-3.359375-4.644531-4.648437-5.976562-11.65625-3.359375-17.683594l17.839844-41.199219-29.203125-16.800781-26.796875 36.160157c-3.925781 5.261718-10.664063 7.589843-16.996094 5.878906-6.335937-1.710938-10.984375-7.117188-11.726563-13.636719l-4.960937-44.640625h-34.636719l-5.042968 44.320312c-.609376 6.003907-4.578126 11.136719-10.234376 13.242188s-12.015624.816406-16.402343-3.324219c-.242188-.160156-.480469-.398437-.722657-.558593-.589843-.648438-1.121093-1.34375-1.597656-2.078126l-26.320312-35.441406-29.042969 16.800782 17.761719 40.640624c2.714844 6.011719 1.371094 13.082032-3.359375 17.679688-4.601563 4.714844-11.644531 6.085938-17.679688 3.4375l-40.800781-17.757812-11.679688 20.398437c22.277344 4.007813 41.335938 18.34375 51.359376 38.640625zm0 0"/></svg>