<svg xmlns="http://www.w3.org/2000/svg" height="171pt" version="1.1" viewBox="-15 0 171 171.25144" width="171pt">
<g id="surface1">
<path fill="#FFFFFF" d="M 9.214844 135.109375 C 9.214844 134.933594 11.433594 118.449219 18.714844 113.128906 C 20.632812 111.820312 22.667969 110.695312 24.800781 109.785156 L 24.800781 130.300781 C 21.34375 131.566406 16.9375 135.109375 16.9375 142.660156 L 16.9375 168.929688 C 16.9375 170.21875 17.976562 171.25 19.257812 171.25 L 121.539062 171.25 C 122.816406 171.25 123.851562 170.21875 123.851562 168.929688 L 123.851562 142.660156 C 123.851562 135.144531 119.453125 131.601562 115.988281 130.300781 L 115.988281 109.890625 C 118.054688 110.785156 120.03125 111.878906 121.894531 113.148438 C 129.167969 118.449219 131.382812 134.953125 131.394531 135.125 L 135.894531 169.117188 L 140.527344 168.515625 L 136.035156 134.519531 C 135.9375 133.769531 133.5625 115.882812 124.660156 109.394531 C 121.671875 107.410156 118.472656 105.757812 115.125 104.464844 C 114.929688 104.316406 114.710938 104.191406 114.472656 104.109375 L 112.539062 103.429688 C 109.578125 102.285156 106.453125 101.207031 103.472656 100.25 L 101.773438 99.648438 C 101.597656 99.574219 101.414062 99.519531 101.21875 99.488281 C 96.238281 97.945312 91.867188 96.75 89.53125 96.140625 L 89.53125 90.941406 C 96.609375 85.890625 100.804688 77.742188 100.816406 69.046875 L 100.816406 64.9375 C 101.605469 65.25 102.453125 65.410156 103.300781 65.414062 C 107.230469 65.410156 110.417969 62.226562 110.425781 58.292969 L 110.425781 51.882812 C 110.417969 49.640625 109.363281 47.539062 107.582031 46.199219 C 108.226562 42.273438 108.523438 38.300781 108.460938 34.324219 C 108.460938 8.054688 90.183594 1.875 79.308594 0.46875 C 76.320312 0.136719 73.3125 -0.0117188 70.3125 0 C 66.855469 -0.0234375 63.394531 0.214844 59.972656 0.699219 C 49.648438 2.324219 32.328125 8.859375 32.328125 34.34375 C 32.277344 38.316406 32.578125 42.277344 33.226562 46.199219 C 31.433594 47.539062 30.386719 49.640625 30.382812 51.882812 L 30.382812 58.292969 C 30.347656 62.230469 33.515625 65.460938 37.457031 65.492188 C 37.488281 65.492188 37.515625 65.492188 37.554688 65.492188 C 38.40625 65.484375 39.246094 65.324219 40.039062 65.015625 L 40.039062 69.109375 C 40.046875 77.722656 44.171875 85.804688 51.132812 90.863281 L 51.132812 96.246094 C 42.699219 98.398438 34.402344 101.027344 26.273438 104.128906 L 26.195312 104.128906 C 22.609375 105.46875 19.183594 107.21875 16 109.335938 C 7.097656 115.824219 4.714844 133.699219 4.617188 134.445312 L 0.125 168.4375 L 4.765625 169.042969 Z M 105.761719 58.292969 C 105.761719 59.667969 104.648438 60.78125 103.273438 60.78125 C 101.898438 60.78125 100.785156 59.667969 100.785156 58.292969 L 100.785156 57.65625 C 103.03125 56.441406 104.792969 54.484375 105.761719 52.113281 Z M 60.742188 5.226562 C 63.914062 4.800781 67.117188 4.601562 70.3125 4.644531 C 73.089844 4.625 75.878906 4.777344 78.640625 5.09375 C 90.089844 6.496094 103.734375 12.726562 103.734375 34.34375 C 103.78125 37.523438 103.621094 40.699219 103.242188 43.855469 C 70.957031 30.433594 45.867188 39.640625 37.554688 43.609375 C 37.175781 40.539062 37 37.441406 37.027344 34.34375 C 37.027344 13.398438 49.925781 6.976562 60.742188 5.226562 Z M 40.039062 58.292969 C 40.039062 59.667969 38.929688 60.78125 37.554688 60.78125 C 36.179688 60.78125 35.0625 59.667969 35.0625 58.292969 L 35.0625 52.113281 C 36.035156 54.476562 37.792969 56.425781 40.039062 57.648438 Z M 38.492188 48.261719 C 44.769531 45.171875 70 34.710938 102.222656 48.417969 C 100.941406 52.484375 99.132812 53.488281 97.769531 53.890625 C 95.0625 54.695312 90.566406 53.578125 85.796875 52.34375 C 80.789062 50.753906 75.59375 49.839844 70.347656 49.636719 C 65.09375 49.839844 59.894531 50.753906 54.890625 52.34375 C 50.109375 53.660156 45.617188 54.769531 42.914062 53.890625 C 41.664062 53.488281 39.808594 52.433594 38.523438 48.261719 Z M 44.675781 69.046875 L 44.675781 58.773438 L 45.320312 58.773438 C 49.027344 58.546875 52.683594 57.851562 56.214844 56.699219 C 60.816406 55.222656 65.597656 54.363281 70.421875 54.148438 C 75.242188 54.363281 80.023438 55.222656 84.621094 56.699219 C 88.152344 57.851562 91.808594 58.546875 95.515625 58.773438 L 96.160156 58.773438 L 96.160156 69.03125 C 96.148438 81.375 86.144531 91.371094 73.804688 91.375 L 67.019531 91.375 C 54.6875 91.359375 44.691406 81.371094 44.675781 69.03125 Z M 84.847656 93.628906 L 84.847656 97.183594 L 70.386719 115.730469 L 55.753906 97.183594 L 55.753906 93.527344 C 59.28125 95.164062 63.117188 96.007812 67.003906 96.007812 L 73.789062 96.007812 C 77.609375 96.007812 81.375 95.199219 84.847656 93.617188 Z M 42.167969 103.558594 C 46.703125 102.175781 50.578125 101.128906 52.574219 100.605469 L 70.421875 123.164062 L 88.070312 100.605469 C 90.089844 101.148438 94.042969 102.148438 98.648438 103.613281 L 98.648438 130.613281 L 42.167969 130.613281 Z M 27.449219 134.457031 C 28.597656 134.304688 29.457031 133.320312 29.453125 132.15625 L 29.453125 107.863281 C 32.0625 106.859375 34.832031 105.886719 37.535156 105.007812 L 37.535156 132.929688 C 37.535156 134.207031 38.570312 135.25 39.859375 135.25 L 100.96875 135.25 C 102.246094 135.25 103.28125 134.207031 103.28125 132.929688 L 103.28125 105.117188 L 111.363281 107.941406 L 111.363281 132.097656 C 111.363281 133.253906 112.230469 134.246094 113.378906 134.398438 C 113.609375 134.398438 119.238281 135.257812 119.238281 142.652344 L 119.238281 166.539062 L 21.589844 166.539062 L 21.589844 142.632812 C 21.589844 135.496094 26.855469 134.472656 27.449219 134.398438 Z M 27.449219 134.457031 " style=" stroke:none;fill-rule:nonzero;fill-opacity:1;" />
<path fill="#FFFFFF" d="M 27.132812 139.683594 L 39.859375 139.683594 L 39.859375 143.90625 L 27.132812 143.90625 Z M 27.132812 139.683594 " style=" stroke:none;fill-rule:nonzero;fill-opacity:1;" />
<path fill="#FFFFFF" d="M 100.96875 139.683594 L 113.6875 139.683594 L 113.6875 143.90625 L 100.96875 143.90625 Z M 100.96875 139.683594 " style=" stroke:none;fill-rule:nonzero;fill-opacity:1;" />
</g>
</svg>